<svg width="109" height="111" viewBox="0 0 109 111" fill="none" xmlns="http://www.w3.org/2000/svg">
<rect y="5.7265" width="109" height="105.274" rx="23" fill="#FF9900"/>
<path d="M53.368 32.08C52.088 32.08 51.128 32.336 50.488 32.848C47.608 39.568 46.168 48.752 46.168 60.4C46.168 71.984 46.68 80.816 47.704 86.896H48.28C54.104 80.24 59.928 71.824 65.752 61.648C71.576 51.472 74.488 42.96 74.488 36.112C74.488 34.128 73.752 33.136 72.28 33.136L68.44 33.904C68.44 32.56 69.08 31.632 70.36 31.12C73.496 29.84 76.92 29.2 80.632 29.2C82.424 29.2 83.32 29.872 83.32 31.216C83.32 36.656 80.472 44.656 74.776 55.216C69.144 65.712 62.936 75.12 56.152 83.44C49.368 91.696 44.504 95.824 41.56 95.824C40.088 95.824 38.936 93.232 38.104 88.048C37.336 82.864 36.952 77.552 36.952 72.112C36.952 66.608 37.048 62.064 37.24 58.48C37.432 54.896 37.624 51.728 37.816 48.976C38.072 46.224 38.328 43.76 38.584 41.584C38.84 39.344 39.064 37.584 39.256 36.304C39.448 34.96 39.544 34.224 39.544 34.096C39.544 33.392 39.224 33.04 38.584 33.04L30.808 33.712C31 32.752 31.512 31.856 32.344 31.024C33.24 30.128 34.136 29.68 35.032 29.68C44.12 29.68 51.16 29.328 56.152 28.624L53.848 32.08H53.368Z" fill="white"/>
</svg>
